<?xml version="1.0" encoding="UTF-8" standalone="no"?>
<svg
   xmlns:dc="http://purl.org/dc/elements/1.1/"
   xmlns:cc="http://creativecommons.org/ns#"
   xmlns:rdf="http://www.w3.org/1999/02/22-rdf-syntax-ns#"
   xmlns:svg="http://www.w3.org/2000/svg"
   xmlns="http://www.w3.org/2000/svg"
   viewBox="0 0 350.50668 194.58932"
   height="194.58932"
   width="350.50668"
   xml:space="preserve"
   id="svg2"
   version="1.1"><metadata
     id="metadata8"><rdf:RDF><cc:Work
         rdf:about=""><dc:format>image/svg+xml</dc:format><dc:type
           rdf:resource="http://purl.org/dc/dcmitype/StillImage" /></cc:Work></rdf:RDF></metadata><defs
     id="defs6"><clipPath
       id="clipPath22"
       clipPathUnits="userSpaceOnUse"><path
         id="path20"
         d="M 0,145.942 H 262.88 V 0 H 0 Z" /></clipPath><clipPath
       id="clipPath58"
       clipPathUnits="userSpaceOnUse"><path
         id="path56"
         d="m 93.87,35.868 h 75.932 V 145.941 H 93.87 Z" /></clipPath></defs><g
     transform="matrix(1.3333333,0,0,-1.3333333,0,194.58933)"
     id="g10"><g
       transform="translate(71.5986,22.6971)"
       id="g12"><path
         id="path14"
         style="fill:#ffffff;fill-opacity:1;fill-rule:nonzero;stroke:none"
         d="m 0,0 v -22.192 h 4.817 v 14.056 l 18.507,-14.54 h 2.141 V -0.463 H 20.657 V -14.517 L 2.151,0 Z" /></g><g
       id="g16"><g
         clip-path="url(#clipPath22)"
         id="g18"><g
           transform="translate(249.3062)"
           id="g24"><path
             id="path26"
             style="fill:#ffffff;fill-opacity:1;fill-rule:nonzero;stroke:none"
             d="M 0,0 C 7.557,0 13.574,3.358 13.574,10.977 V 22.201 H 8.187 V 11.147 C 8.187,6.684 5.396,2.954 0,2.954 c -5.398,0 -8.185,3.73 -8.185,8.193 v 11.054 h -5.388 V 10.977 C -13.573,3.358 -7.556,0 0,0" /></g><g
           transform="translate(215.0795,16.396)"
           id="g28"><path
             id="path30"
             style="fill:#ffffff;fill-opacity:1;fill-rule:nonzero;stroke:none"
             d="M 0,0 4.657,-8.116 H -4.636 L 0,0 m 9.071,-15.908 h 5.86 L 1.514,6.297 h -2.843 l -13.416,-22.205 h 5.676 l 2.745,4.784 12.724,-0.003 z" /></g><g
           transform="translate(163.4029,22.2094)"
           id="g32"><path
             id="path34"
             style="fill:#ffffff;fill-opacity:1;fill-rule:nonzero;stroke:none"
             d="m 0,0 h -23.789 v -2.974 h 9.199 v -18.748 h 5.382 V -2.974 H 0 Z" /></g><g
           transform="translate(194.0141,19.2415)"
           id="g36"><path
             id="path38"
             style="fill:#ffffff;fill-opacity:1;fill-rule:nonzero;stroke:none"
             d="M 0,0 V 2.973 H -22.351 V -18.754 H 1.062 v 3.008 h -18.025 v 6.681 h 14.03 v 2.99 h -14.03 V 0 Z" /></g><g
           transform="translate(61.3996,19.2415)"
           id="g40"><path
             id="path42"
             style="fill:#ffffff;fill-opacity:1;fill-rule:nonzero;stroke:none"
             d="M 0,0 V 2.973 H -22.35 V -18.754 H 1.059 v 3.008 h -18.023 v 6.681 h 14.028 v 2.99 H -16.964 V 0 Z" /></g><g
           transform="translate(131.6614,19.2415)"
           id="g44"><path
             id="path46"
             style="fill:#ffffff;fill-opacity:1;fill-rule:nonzero;stroke:none"
             d="M 0,0 V 2.973 H -22.348 V -18.754 H 1.061 v 3.008 h -18.024 v 6.681 h 14.028 v 2.99 H -16.963 V 0 Z" /></g><g
           transform="translate(5.749,3.5102)"
           id="g48"><path
             id="path50"
             style="fill:#ffffff;fill-opacity:1;fill-rule:nonzero;stroke:none"
             d="M 0,0 V 9.633 H 11.58 C 15.944,9.566 18.103,7.167 18.127,4.541 18.155,1.383 14.953,-0.096 11.392,0 Z m 0,12.569 v 8.383 h 9.505 c 4.785,0.051 6.489,-2.243 6.489,-4.301 0,-1.079 -0.412,-4.037 -6.789,-4.082 z m 16.78,-1.174 c 3.136,0.826 5.277,2.884 5.277,5.888 0,4.53 -4.509,6.972 -11.729,6.972 L -5.749,24.26 V -3.286 h 17.133 c 7.195,0 12.831,2.44 12.831,7.922 0,4.211 -3.935,6.374 -7.435,6.759" /></g></g></g><g
       id="g52"><g
         clip-path="url(#clipPath58)"
         id="g54"><g
           transform="translate(100.7202,75.3071)"
           id="g60"><path
             id="path62"
             style="fill:#ffffff;fill-opacity:1;fill-rule:nonzero;stroke:none"
             d="m 0,0 0.918,-0.839 c 0,0 -5.816,-6.733 3.211,-10.177 0,0.093 -1.302,-12.934 9.771,-20.192 -0.093,0 11.027,-8.761 27.964,-3.444 -0.011,0 0.487,-0.989 0.487,-0.989 0,0 -15.611,-7.572 -32.08,-1.338 0.011,-0.034 -10.889,3.63 -15.634,15.076 0.092,0 -5.84,11.702 5.363,21.903" /></g><g
           transform="translate(151.3213,47.9883)"
           id="g64"><path
             id="path66"
             style="fill:#ffffff;fill-opacity:1;fill-rule:nonzero;stroke:none"
             d="m 0,0 c -6.854,-2.4 -10.831,-2.308 -10.831,-2.308 -10.097,-0.512 -16.377,5.584 -16.377,5.584 -6.656,5.817 -6.422,14.422 -6.422,14.422 -3.816,0 -5.676,3.349 -5.676,3.349 -1.677,3.725 1.025,6.794 1.025,6.773 l -0.992,0.882 C -45.939,22.584 -45.449,15 -45.449,14.907 c 0.096,-9.772 7.446,-15.356 7.446,-15.356 7.63,-6.607 17.864,-6.233 17.958,-6.233 9.114,-0.184 20.359,5.685 20.606,5.814 z" /></g><g
           transform="translate(158.8173,54.5274)"
           id="g68"><path
             id="path70"
             style="fill:#ffffff;fill-opacity:1;fill-rule:nonzero;stroke:none"
             d="m 0,0 c -2.303,-1.075 -6.446,-2.297 -9.979,-2.212 -9.028,0.208 -15.712,5.566 -17.809,13.699 -8.247,5.952 -3.37,10.988 -2.587,11.755 l -0.791,0.838 c -2.198,-0.627 -5.232,-3.421 -5.141,-3.421 -5.955,-6.049 -3.097,-13.962 -3.072,-14.05 1.702,-5.821 8.188,-9.863 8.283,-9.863 12.472,-8.047 30.78,1.972 31.554,2.376 z" /></g><g
           transform="translate(123.9153,88.1881)"
           id="g72"><path
             id="path74"
             style="fill:#ffffff;fill-opacity:1;fill-rule:nonzero;stroke:none"
             d="m 0,0 c 0.431,0.242 0.863,0.477 1.298,0.704 -0.747,1.16 -7.944,14.049 -4.686,26.02 3.444,12.656 16.708,19.077 18.289,19.543 0,-0.044 0.225,-0.512 0.225,-0.512 -0.043,0 -12.511,-5.257 -16.791,-19.773 0,0 -2.781,-13.352 4.706,-24.416 1.81,0.844 3.652,1.553 5.51,2.115 3.811,1.156 7.692,1.702 11.535,1.622 3.421,-0.075 6.756,-0.793 9.916,-2.148 2.547,-1.092 4.922,-2.56 7.07,-4.373 1.263,-1.005 2.473,-2.192 3.551,-3.588 2.249,-2.737 3.562,-5.708 3.952,-8.222 l 1.313,0.019 c -0.093,0 0.62,12.277 -16.937,25.032 -3.66,2.658 -8.935,6.048 -10.61,12.284 -1.677,6.233 1.394,10.329 1.394,10.329 -0.012,0 0.495,-0.373 0.495,-0.373 0,0 -1.606,-3.351 2.115,-5.862 0.092,0 1.49,-0.93 2.977,-1.77 1.488,-0.837 2.882,-1.673 2.604,-4.186 -0.011,0 -0.778,-2.232 0.562,-3.048 -0.011,0 1.241,-0.626 2.222,-0.812 0,0 0.915,3.745 0.802,4.93 0,0 2.232,-1.932 2.486,-5.957 -0.024,0 1.558,0 1.839,0.165 0.282,0.162 0.51,0.231 1.14,1.256 -0.026,0 0.279,0.603 1.282,0.885 0.021,0 0.904,0.51 0.698,1.558 -0.213,1.045 -1.352,11.168 -6.005,25.029 0,0.051 2.373,0.187 3.886,0.118 -0.022,0 -0.675,1.956 -0.675,1.956 0,0 -2.396,0.833 -5.934,1.068 -0.023,0 -0.535,0.164 -0.093,0.327 0.444,0.163 0.397,0.185 1.21,0.324 0,-0.023 -1.976,4.538 -4.21,7.492 0,0.024 -5.052,0.14 -8.606,-0.744 -3.557,-0.883 -8.564,-2.653 -13.613,-6.421 -0.022,0 2.84,-2.441 2.889,-5.792 0,0 -3.307,3.325 -5.029,4.164 -0.022,0 -8.597,-6.491 -12.134,-14.743 -0.032,-0.007 3.878,-0.867 5.737,-3.729 -0.022,0 -4.211,1.185 -6.699,1.163 0.022,0 -1.303,-4.211 -1.349,-8.351 -0.046,-4.144 1.396,-7.817 1.396,-7.817 0,0 1.908,1.674 4.443,0.999 0,0.024 -2.35,-1.766 -3.375,-3.163 0,-0.046 2.468,-2.163 4.513,-5.233 C -2.669,5.035 -1.465,3.115 0,0" /></g><g
           transform="translate(165.5076,79.6599)"
           id="g76"><path
             id="path78"
             style="fill:#ffffff;fill-opacity:1;fill-rule:nonzero;stroke:none"
             d="m 0,0 c -1.204,2.032 -2.868,4.026 -4.812,5.762 -2.194,1.965 -4.656,3.533 -7.311,4.672 -3.001,1.283 -6.167,1.971 -9.411,2.037 -3.692,0.077 -7.421,-0.443 -11.087,-1.553 -2.94,-0.887 -5.845,-2.153 -8.636,-3.763 -1.345,-0.774 -2.532,-1.553 -3.548,-2.278 -1.198,-0.89 -2.48,-1.92 -3.826,-3.1 l 1.105,-1.035 c 0,0 5.384,4.084 11.899,3.804 6.517,-0.281 13.213,-2.976 13.957,-9.306 0.746,-6.328 -4.927,-11.446 -11.446,-9.398 -0.089,0 2.516,-9.957 16.288,-10.982 -0.091,0 11.259,-0.559 16.563,8.934 0,0.08 4.311,7.138 0.999,14.846 C 0.516,-0.91 0.271,-0.453 0,0" /></g></g></g></g></svg>